<?xml version="1.0" standalone="no"?>
<!DOCTYPE svg PUBLIC "-//W3C//DTD SVG 20010904//EN"
 "http://www.w3.org/TR/2001/REC-SVG-20010904/DTD/svg10.dtd">
<svg version="1.0" xmlns="http://www.w3.org/2000/svg"
 width="398.000000pt" height="398.000000pt" viewBox="0 0 398.000000 398.000000"
 preserveAspectRatio="xMidYMid meet">
<metadata>
Created by potrace 1.11, written by Peter Selinger 2001-2013
</metadata>
<g transform="translate(0.000000,398.000000) scale(0.100000,-0.100000)"
fill="#000000" stroke="none">
<path d="M1766 3481 c-33 -11 -72 -29 -87 -40 -16 -12 -36 -21 -47 -21 -31 0
-120 -50 -147 -82 -37 -44 -80 -134 -93 -193 -6 -27 -13 -90 -16 -140 -3 -49
-17 -139 -32 -200 -19 -82 -27 -146 -30 -255 l-5 -145 40 -115 c22 -63 45
-114 51 -112 12 3 46 -71 56 -123 9 -47 23 -53 37 -16 6 17 14 31 18 31 4 0
12 -23 19 -50 7 -28 16 -53 21 -56 5 -3 9 -55 9 -116 l0 -110 34 -34 c19 -19
38 -45 42 -57 3 -12 13 -29 20 -38 26 -29 7 -47 -64 -59 -37 -6 -186 -33 -332
-61 -146 -27 -303 -56 -350 -65 -47 -8 -116 -21 -155 -29 -38 -7 -89 -16 -112
-20 -49 -8 -71 -36 -97 -124 -21 -73 -20 -146 4 -222 22 -72 21 -74 -53 -83
-71 -10 -83 -19 -102 -77 -26 -78 -17 -212 21 -308 l29 -74 155 -62 c150 -60
471 -187 845 -334 100 -39 189 -71 198 -71 10 0 122 30 250 66 388 109 716
202 827 234 58 17 224 64 369 105 145 41 266 76 268 79 3 3 8 32 12 66 8 68 7
70 -61 84 -27 6 -28 8 -28 76 0 75 2 79 65 95 38 10 40 13 48 59 4 27 6 51 3
53 -2 3 -70 19 -150 37 -91 20 -150 38 -158 48 -7 9 -30 21 -50 28 -32 9 -38
17 -44 47 -8 40 11 137 29 151 7 5 24 12 38 15 23 6 27 13 32 59 4 28 5 54 3
56 -2 2 -118 26 -257 53 -139 28 -255 51 -257 53 -1 2 27 18 64 35 58 27 71
30 103 21 60 -16 103 -12 161 18 44 23 56 34 58 56 2 15 -1 33 -7 40 -8 9 9
22 70 51 92 45 110 62 111 102 1 31 -78 289 -112 366 -15 33 -27 47 -40 47
-17 0 -18 -3 -9 -27 25 -62 119 -317 119 -320 0 -2 -6 -1 -12 4 -7 4 -5 -5 5
-20 21 -33 7 -35 -35 -6 -16 12 -31 19 -34 16 -5 -5 46 -37 81 -51 12 -5 15
-10 8 -13 -6 -2 -24 2 -40 10 -15 8 -88 40 -161 71 -113 49 -135 55 -155 45
-31 -16 -268 -148 -413 -230 -67 -38 -127 -69 -133 -69 -6 0 -11 -8 -11 -19 0
-13 20 -27 78 -51 42 -19 81 -37 87 -42 18 -16 -33 -8 -81 12 -26 11 -49 18
-52 15 -3 -2 17 -14 44 -25 96 -41 92 -39 59 -39 -16 0 -50 8 -74 19 -46 21
-71 26 -56 11 6 -5 37 -19 70 -30 43 -14 52 -20 33 -21 -15 0 -51 9 -79 20
-64 26 -78 18 -18 -10 24 -11 38 -20 31 -20 -26 0 -88 39 -131 83 -40 42 -43
48 -37 82 6 31 14 39 53 56 25 11 51 18 57 17 6 -2 62 26 124 62 l114 65 -39
8 c-107 22 -97 12 -106 116 -5 52 -6 104 -3 117 6 24 7 24 38 -11 35 -40 41
-39 43 8 3 96 5 105 23 109 14 4 22 25 35 100 23 126 21 234 -4 358 -23 112
-22 166 6 280 8 36 18 102 22 146 10 140 -45 272 -149 355 -78 62 -131 83
-218 86 -41 1 -113 5 -160 8 -68 4 -97 1 -144 -14z m360 -251 c47 -20 91 -70
139 -156 l33 -61 -47 5 c-54 5 -121 -19 -121 -42 0 -19 -1 -19 43 -1 76 32
151 10 160 -47 6 -42 3 -44 -27 -24 -49 32 -136 16 -180 -33 -22 -24 -16 -33
33 -50 58 -19 106 -14 141 16 39 33 51 20 43 -46 -6 -54 -37 -123 -94 -212
-82 -128 -139 -169 -238 -169 -75 0 -96 8 -204 78 -70 46 -86 61 -83 77 13 56
17 179 7 246 -19 140 12 243 108 352 28 32 51 66 51 76 0 15 10 17 98 13 63
-3 111 -10 138 -22z m99 -350 c-9 -10 -15 -26 -12 -35 8 -19 -18 -20 -52 -1
-25 14 -24 15 27 42 41 21 59 19 37 -6z m-280 -490 c30 0 42 -12 50 -48 8 -38
41 -62 118 -88 48 -16 71 -41 65 -71 -2 -13 -17 -17 -70 -19 -38 -1 -70 1 -72
5 -3 4 -30 6 -60 5 -31 -1 -58 2 -62 7 -3 5 17 9 45 9 27 0 53 4 56 10 3 5
-23 23 -57 41 -35 17 -78 42 -95 56 -31 22 -33 28 -33 84 l0 59 47 -25 c27
-14 57 -25 68 -25z m215 -326 c0 -8 -4 -12 -10 -9 -5 3 -10 13 -10 21 0 8 5
12 10 9 6 -3 10 -13 10 -21z m-176 -32 c-15 -15 -34 -8 -34 13 0 18 22 24 36
11 8 -8 7 -14 -2 -24z m120 13 c8 -22 -14 -29 -32 -11 -11 11 -12 16 -4 16 7
0 10 4 7 10 -3 5 0 7 9 4 8 -3 17 -12 20 -19z m-184 -48 c0 -19 -10 -27 -25
-20 -17 6 -8 33 11 33 8 0 14 -6 14 -13z m230 -7 c0 -11 -7 -20 -15 -20 -15 0
-21 21 -8 33 12 13 23 7 23 -13z m767 -127 c73 -31 132 -58 130 -60 -2 -1 -48
15 -103 38 -171 71 -153 71 -279 -1 -123 -70 -358 -191 -362 -186 -2 2 61 37
139 80 79 42 186 101 238 130 52 30 97 55 99 55 2 1 64 -24 138 -56z m33 -223
c0 -5 -12 -10 -26 -10 -14 0 -23 4 -19 10 3 6 15 10 26 10 10 0 19 -4 19 -10z
m0 -29 c0 -8 -90 -3 -99 5 -2 2 19 4 47 4 29 0 52 -4 52 -9z m-115 -21 c3 -5
-3 -10 -15 -10 -12 0 -18 5 -15 10 3 6 10 10 15 10 5 0 12 -4 15 -10z m85 0
c0 -5 -9 -10 -21 -10 -11 0 -17 5 -14 10 3 6 13 10 21 10 8 0 14 -4 14 -10z
m-1095 -26 c22 -7 33 -13 24 -14 -26 0 -133 22 -143 31 -12 11 72 -1 119 -17z
m1045 -4 c-20 -13 -107 -13 -115 0 -4 6 19 10 62 10 48 0 63 -3 53 -10z m-940
-10 c11 -8 7 -9 -15 -4 -37 8 -45 14 -19 14 10 0 26 -5 34 -10z m823 -131
c170 -32 311 -59 315 -59 27 0 -35 -23 -148 -55 -74 -21 -173 -49 -220 -62
-135 -39 -134 -40 -140 35 -7 84 -25 100 -154 131 -70 17 -93 27 -80 32 10 4
28 16 39 28 15 15 28 19 50 15 17 -3 169 -32 338 -65z m-438 -19 c7 -6 15 -7
18 -4 11 11 68 -21 65 -36 -4 -21 -34 -19 -30 3 2 9 -2 17 -8 17 -5 0 -10 -7
-10 -15 0 -40 -100 -49 -131 -12 -22 26 -23 39 -7 55 13 13 85 7 103 -8z
m-705 -75 c15 -72 44 -105 127 -144 66 -32 216 -93 261 -106 35 -10 19 -21
-58 -40 -69 -17 -76 -23 -71 -62 2 -12 -3 -15 -31 -17 -7 -1 -12 12 -13 29 0
27 -4 30 -50 41 -48 11 -417 109 -520 139 -76 21 -205 55 -211 55 -3 0 -2 -5
2 -12 4 -7 3 -8 -5 -4 -6 4 -9 11 -6 16 3 5 -6 10 -20 12 -34 4 -33 22 2 26
33 3 434 88 508 108 73 19 73 19 85 -41z m-883 9 c30 -9 52 -18 50 -21 -5 -5
-117 26 -117 33 0 6 8 5 67 -12z m1254 -28 c62 -26 73 -50 60 -125 -1 -2 -7 2
-15 8 -8 6 -18 11 -22 10 -5 -1 -23 4 -41 10 -24 10 -32 20 -38 47 -4 22 -2
41 6 50 14 17 9 17 50 0z m1056 8 c-3 -3 -12 -4 -19 -1 -8 3 -5 6 6 6 11 1 17
-2 13 -5z m-2187 -14 l25 -8 -25 0 c-14 0 -34 3 -45 8 l-20 9 20 -1 c11 0 31
-4 45 -8z m2197 -6 c-3 -3 -12 -4 -19 -1 -8 3 -5 6 6 6 11 1 17 -2 13 -5z
m-47 -14 c-8 -5 -26 -9 -40 -9 l-25 1 25 8 c14 4 32 8 40 9 13 1 13 0 0 -9z
m-2030 -20 c0 -5 -2 -10 -4 -10 -3 0 -8 5 -11 10 -3 6 -1 10 4 10 6 0 11 -4
11 -10z m70 -111 c201 -55 428 -118 505 -139 77 -21 175 -48 218 -60 l77 -23
79 21 c43 12 83 22 88 22 5 0 15 -43 22 -97 7 -53 18 -104 24 -114 16 -26 6
-33 -108 -69 -72 -23 -109 -30 -135 -25 -19 4 -199 56 -400 117 -201 60 -399
120 -440 132 -314 93 -298 87 -315 128 -25 63 -15 208 14 208 4 0 171 -45 371
-101z m1820 97 c0 -2 -7 -7 -16 -10 -8 -3 -12 -2 -9 4 6 10 25 14 25 6z m118
-36 c-9 -27 -7 -111 4 -174 3 -20 3 -20 -262 -104 -89 -28 -129 -37 -140 -30
-13 8 -15 28 -12 116 2 59 6 109 7 110 4 5 387 110 402 111 9 1 9 -7 1 -29z
m-882 -9 c-10 -16 -36 -13 -36 3 0 17 21 27 34 16 4 -5 5 -13 2 -19z m674 15
c0 -2 -11 -6 -25 -8 -13 -3 -22 -1 -19 3 5 9 44 13 44 5z m-410 -40 c0 -21 -8
-27 -62 -43 l-63 -19 -6 28 c-4 15 -12 35 -19 43 -11 13 -2 15 69 15 79 0 81
-1 81 -24z m310 10 c0 -2 -9 -6 -20 -9 -11 -3 -18 -1 -14 4 5 9 34 13 34 5z
m-73 -22 c-3 -3 -12 -4 -19 -1 -8 3 -5 6 6 6 11 1 17 -2 13 -5z m-1410 -20
c-3 -3 -12 -4 -19 -1 -8 3 -5 6 6 6 11 1 17 -2 13 -5z m40 -10 c-3 -3 -12 -4
-19 -1 -8 3 -5 6 6 6 11 1 17 -2 13 -5z m46 -11 c-7 -2 -19 -2 -25 0 -7 3 -2
5 12 5 14 0 19 -2 13 -5z m82 -23 c13 -5 14 -9 5 -9 -8 0 -24 4 -35 9 -13 5
-14 9 -5 9 8 0 24 -4 35 -9z m905 -6 l-25 -15 35 5 35 5 -33 -11 c-18 -6 -36
-8 -40 -4 -8 8 25 36 42 36 6 -1 0 -7 -14 -16z m-835 -14 c13 -5 14 -9 5 -9
-8 0 -24 4 -35 9 -13 5 -14 9 -5 9 8 0 24 -4 35 -9z m80 -20 l20 -9 -20 0
c-11 0 -29 4 -40 9 l-20 9 20 0 c11 0 29 -4 40 -9z m898 -62 c11 -38 25 -68
32 -68 9 0 10 -11 5 -40 -4 -23 -10 -43 -12 -46 -9 -8 -222 -74 -226 -69 -3 2
1 61 8 130 l14 125 60 20 c90 29 96 26 119 -52z m-840 45 c-7 -2 -19 -2 -25 0
-7 3 -2 5 12 5 14 0 19 -2 13 -5z m444 -9 c-3 -3 -12 -4 -19 -1 -8 3 -5 6 6 6
11 1 17 -2 13 -5z m1051 -19 c6 -6 -11 -55 -19 -55 -5 0 -6 7 -3 15 6 16 -2
15 -51 -5 -11 -4 -77 -25 -147 -46 -70 -21 -125 -41 -122 -45 2 -4 -6 -5 -18
-1 -13 3 -19 1 -15 -5 4 -6 -3 -8 -17 -6 -16 3 -23 0 -23 -11 0 -11 7 -14 26
-10 23 5 24 4 8 -6 -20 -13 -52 -6 -42 10 3 5 -1 10 -9 10 -9 0 -16 -4 -16
-10 0 -5 -4 -10 -10 -10 -5 0 -10 7 -10 14 0 10 47 29 148 61 230 72 277 90
274 104 -2 9 4 10 20 6 13 -4 24 -9 26 -10z m-1383 -5 c13 -5 14 -9 5 -9 -8 0
-24 4 -35 9 -13 5 -14 9 -5 9 8 0 24 -4 35 -9z m75 -20 c11 -8 7 -9 -15 -4
-37 8 -45 14 -19 14 10 0 26 -5 34 -10z m210 0 c-8 -5 -22 -9 -30 -9 -10 0 -8
3 5 9 27 12 43 12 25 0z m-1265 -20 c13 -6 15 -9 5 -9 -8 0 -22 4 -30 9 -18
12 -2 12 25 0z m1112 4 c-3 -3 -12 -4 -19 -1 -8 3 -5 6 6 6 11 1 17 -2 13 -5z
m1550 -57 c6 -7 -7 -10 -262 -72 -288 -70 -296 -72 -358 -89 -32 -9 -67 -16
-77 -16 -24 0 -48 38 -28 44 7 3 111 37 231 76 173 57 217 75 217 89 0 10 2
20 5 23 6 6 263 -46 272 -55z m-2592 33 l20 -9 -20 0 c-11 0 -27 4 -35 9 -13
9 -13 10 0 9 8 0 24 -4 35 -9z m2210 -10 c3 -5 1 -10 -4 -10 -6 0 -11 5 -11
10 0 6 2 10 4 10 3 0 8 -4 11 -10z m-432 -19 c-3 -11 -15 -21 -26 -23 -13 -2
-23 -13 -27 -28 -7 -28 -15 -20 -24 25 -6 30 -5 31 31 33 20 2 39 5 42 7 8 9
9 5 4 -14z m-1688 -1 c8 -13 -5 -13 -25 0 -13 8 -13 10 2 10 9 0 20 -4 23 -10z
m2065 0 c-8 -5 -24 -9 -35 -9 -16 1 -16 2 5 9 35 11 48 11 30 0z m-2160 -89
c152 -52 335 -105 520 -150 269 -66 528 -136 537 -145 2 -2 -29 -12 -69 -23
-73 -20 -73 -20 -76 -56 -4 -52 -32 -51 -32 1 l0 38 -92 31 c-185 64 -696 242
-808 283 -63 23 -150 54 -194 70 -43 15 -72 30 -65 33 19 8 11 10 279 -82z
m170 69 c13 -9 13 -10 0 -9 -8 0 -24 4 -35 9 l-20 9 20 0 c11 0 27 -4 35 -9z
m1925 0 c-3 -5 -12 -10 -18 -10 -7 0 -6 4 3 10 19 12 23 12 15 0z m-1570 -102
c230 -71 452 -137 525 -157 16 -5 56 2 115 20 49 16 91 26 93 24 11 -10 -14
-24 -80 -44 -60 -17 -74 -25 -74 -41 0 -15 5 -19 21 -15 14 4 12 1 -7 -10 -28
-16 -59 -11 -57 9 3 21 -1 36 -8 34 -7 -2 -154 42 -202 60 -10 4 -12 1 -6 -9
6 -10 3 -10 -11 2 -27 22 -54 30 -77 23 -16 -5 -17 -8 -6 -15 12 -7 11 -9 -1
-8 -8 0 -24 4 -35 9 -19 8 -19 9 2 9 12 1 25 5 28 11 7 12 -40 24 -56 14 -8
-4 -9 -3 -5 4 5 8 -8 14 -36 19 -24 4 -46 6 -50 5 -5 -1 -8 3 -8 9 0 6 -7 9
-15 5 -8 -3 -15 -2 -15 3 0 5 -10 11 -22 14 -84 18 -296 81 -308 92 -8 7 -22
15 -30 18 -8 4 3 4 25 0 22 -3 157 -42 300 -85z m1525 82 c-8 -5 -19 -10 -25
-10 -5 0 -3 5 5 10 8 5 20 10 25 10 6 0 3 -5 -5 -10z m-40 -16 c0 -2 -7 -4
-15 -4 -8 0 -15 4 -15 10 0 5 7 7 15 4 8 -4 15 -8 15 -10z m-43 -10 c-3 -3
-12 -4 -19 -1 -8 3 -5 6 6 6 11 1 17 -2 13 -5z m-1687 -34 c0 -5 -9 -6 -20 -3
-11 3 -20 9 -20 13 0 5 9 6 20 3 11 -3 20 -9 20 -13z m1428 -26 c-5 -28 -28
-29 -28 -1 0 13 3 27 7 31 10 10 25 -10 21 -30z m-1388 16 c0 -5 -7 -7 -15 -4
-8 4 -15 8 -15 10 0 2 7 4 15 4 8 0 15 -4 15 -10z m1340 -8 c0 -5 -48 -24
-107 -42 -60 -18 -114 -36 -122 -38 -8 -3 -12 0 -9 8 2 7 49 28 104 46 104 34
134 39 134 26z m-1810 -41 c63 -22 239 -83 390 -136 151 -53 347 -122 435
-152 88 -31 162 -59 165 -62 14 -18 94 -8 233 28 86 23 162 38 170 35 8 -3 21
-23 30 -45 13 -32 25 -44 64 -61 26 -12 68 -23 93 -26 42 -4 47 -2 58 22 17
37 15 53 -8 86 -11 16 -23 41 -26 57 l-6 29 143 36 143 37 22 -24 c29 -31 62
-39 135 -32 78 7 92 19 86 74 -4 42 -4 43 32 52 265 69 471 121 478 121 4 0 8
-28 8 -62 0 -35 4 -77 8 -94 l8 -31 -238 -67 c-675 -191 -919 -260 -1133 -321
-129 -36 -240 -67 -246 -69 -6 -2 -24 2 -40 9 -16 7 -175 69 -354 138 -569
221 -732 285 -742 295 -6 6 -13 41 -16 79 -5 60 -7 64 -13 33 -5 -27 -7 -21
-6 28 0 34 3 62 7 62 3 0 57 -18 120 -39z m536 27 c-9 -5 -23 -5 -32 0 -12 6
-7 9 16 9 23 0 28 -3 16 -9z m-676 -158 c18 -48 26 -57 68 -71 20 -6 123 -45
227 -86 105 -41 217 -85 250 -98 33 -13 188 -74 343 -135 l284 -111 286 82
c747 211 962 271 1152 323 113 31 218 63 234 72 16 8 31 12 34 10 17 -18 -24
-37 -159 -75 -85 -24 -192 -55 -239 -68 -112 -32 -380 -108 -505 -143 -55 -15
-183 -51 -285 -80 -102 -29 -194 -55 -205 -58 -11 -2 -80 -22 -154 -43 -74
-22 -136 -39 -138 -39 -1 0 -3 -13 -3 -28 0 -16 -3 -31 -6 -35 -11 -11 -33 5
-29 22 2 10 0 23 -4 29 -6 9 -247 109 -551 227 -207 80 -478 188 -532 212 -50
22 -59 31 -77 73 -15 34 -21 68 -20 112 l2 63 7 -60 c4 -33 13 -76 20 -95z
m717 144 c-3 -3 -12 -4 -19 -1 -8 3 -5 6 6 6 11 1 17 -2 13 -5z m78 -19 l30
-14 -30 6 c-16 3 -39 10 -50 14 l-20 8 20 0 c11 0 34 -6 50 -14z m895 -1 c0
-17 -16 -34 -31 -34 -11 0 -22 -7 -25 -15 -11 -27 -24 -16 -24 19 0 34 1 35
40 33 22 -1 40 -2 40 -3z m215 -14 c-27 -12 -43 -12 -25 0 8 5 22 9 30 9 10 0
8 -3 -5 -9z m-1025 -15 c19 -7 28 -14 20 -14 -8 0 -28 6 -45 14 -39 17 -21 18
25 0z m913 -2 c-7 -2 -19 -2 -25 0 -7 3 -2 5 12 5 14 0 19 -2 13 -5z m-43 -13
c0 -5 -2 -10 -4 -10 -3 0 -8 5 -11 10 -3 6 -1 10 4 10 6 0 11 -4 11 -10z m65
1 c-6 -5 -21 -11 -35 -15 -21 -5 -20 -3 5 9 35 17 42 18 30 6z m135 -21 c0
-12 -7 -20 -17 -20 -29 0 -187 -42 -202 -54 -10 -8 -13 -6 -10 8 3 14 30 27
104 52 120 39 125 39 125 14z m-973 4 c-3 -3 -12 -4 -19 -1 -8 3 -5 6 6 6 11
1 17 -2 13 -5z m144 -39 c19 -8 27 -14 19 -14 -18 0 -79 27 -64 28 7 1 27 -6
45 -14z m473 6 c7 -11 -20 -48 -29 -39 -9 8 4 48 15 48 5 0 11 -4 14 -9z
m-340 -43 c-3 -4 -12 -8 -20 -8 -8 0 -12 5 -9 10 4 7 -2 9 -18 5 -14 -4 -28
-2 -31 3 -4 6 3 8 16 4 13 -3 19 -1 14 6 -4 7 3 7 23 -1 17 -6 28 -15 25 -19z
m963 25 c-12 -3 -16 -10 -13 -20 5 -13 4 -14 -8 -4 -8 7 -20 11 -28 10 -7 -1
-20 -1 -28 1 -28 3 23 19 60 18 19 0 27 -2 17 -5z m-67 -38 c0 -3 -11 -5 -25
-5 -17 0 -23 4 -19 15 5 11 11 12 25 4 10 -5 19 -12 19 -14z m-815 -16 c13
-13 -3 -10 -45 7 l-35 14 35 -6 c19 -3 39 -10 45 -15z m141 9 c-10 -6 -22 -6
-26 -2 -5 5 3 10 18 11 22 1 24 0 8 -9z m264 -169 c12 -7 12 -8 -4 -9 -13 0
-16 -5 -12 -17 4 -12 -1 -9 -15 7 -14 17 -19 19 -15 8 8 -25 1 -22 -18 7 l-16
25 32 -7 c18 -3 40 -9 48 -14z m-82 -1 c19 -19 14 -30 -8 -18 -11 6 -20 15
-20 20 0 14 14 12 28 -2z"/>
<path d="M1836 3005 c-41 -15 -84 -50 -73 -61 3 -3 22 4 42 16 37 23 87 24
168 4 20 -5 27 -3 27 9 0 13 -30 24 -110 43 -8 1 -33 -3 -54 -11z"/>
<path d="M1788 2887 c-48 -22 -57 -39 -22 -46 10 -1 27 -10 36 -18 28 -25 100
-28 158 -7 59 21 61 37 11 71 -45 30 -119 30 -183 0z m102 -6 c0 -6 -5 -13
-11 -17 -6 -3 -9 -15 -6 -25 6 -24 -19 -25 -51 -3 -28 19 -28 28 1 42 28 13
67 15 67 3z m60 -15 c0 -3 -4 -8 -10 -11 -5 -3 -10 -1 -10 4 0 6 5 11 10 11 6
0 10 -2 10 -4z"/>
<path d="M2076 2848 c3 -13 18 -45 31 -72 32 -62 26 -76 -32 -76 -28 0 -44 -4
-40 -10 15 -25 115 -2 115 26 0 17 -65 154 -73 154 -5 0 -5 -10 -1 -22z"/>
<path d="M2153 2599 c-5 -5 -43 -12 -84 -14 -53 -3 -64 -2 -39 4 28 7 23 8
-29 6 -123 -4 -69 -38 59 -36 81 0 120 9 120 26 0 19 -15 26 -27 14z"/>
<path d="M2038 2533 c7 -3 16 -2 19 1 4 3 -2 6 -13 5 -11 0 -14 -3 -6 -6z"/>
<path d="M2078 2533 c6 -2 18 -2 25 0 6 3 1 5 -13 5 -14 0 -19 -2 -12 -5z"/>
<path d="M1792 888 c-19 -63 -23 -107 -11 -152 6 -26 15 -48 19 -51 3 -2 1 20
-7 50 -12 46 -12 63 1 117 16 68 14 90 -2 36z"/>
<path d="M1586 353 c-3 -21 -5 -60 -5 -88 1 -38 4 -30 10 35 8 89 6 117 -5 53z"/>
<path d="M1585 200 c3 -5 8 -10 11 -10 2 0 4 5 4 10 0 6 -5 10 -11 10 -5 0 -7
-4 -4 -10z"/>
<path d="M2931 2200 c14 -38 16 -38 15 0 -1 16 -6 30 -13 30 -9 0 -9 -8 -2
-30z"/>
<path d="M2950 2155 c0 -5 5 -17 10 -25 5 -8 10 -10 10 -5 0 6 -5 17 -10 25
-5 8 -10 11 -10 5z"/>
<path d="M2971 2105 c0 -5 6 -21 14 -35 8 -14 14 -20 14 -15 0 6 -6 21 -14 35
-8 14 -14 21 -14 15z"/>
<path d="M2624 2044 c-18 -14 -18 -15 4 -4 12 6 22 13 22 15 0 8 -5 6 -26 -11z"/>
<path d="M2600 1921 c-119 -65 -146 -76 -151 -63 -4 12 -7 9 -11 -11 l-5 -27
71 39 c225 123 246 132 268 126 18 -5 20 -4 8 4 -8 6 -19 11 -25 11 -5 0 -75
-36 -155 -79z"/>
<path d="M3020 1996 c0 -11 50 -106 55 -106 3 0 -7 24 -21 53 -28 55 -34 65
-34 53z"/>
<path d="M2801 1976 c10 -9 209 -106 209 -101 0 5 -196 105 -206 105 -4 0 -5
-2 -3 -4z"/>
<path d="M2432 1905 c0 -16 2 -22 5 -12 2 9 2 23 0 30 -3 6 -5 -1 -5 -18z"/>
<path d="M2196 1657 c3 -10 9 -15 12 -12 3 3 0 11 -7 18 -10 9 -11 8 -5 -6z"/>
</g>
</svg>
